<?xml version="1.0" encoding="UTF-8"?>
<!DOCTYPE svg PUBLIC "-//W3C//DTD SVG 1.1//EN" "http://www.w3.org/Graphics/SVG/1.1/DTD/svg11.dtd">
<svg xmlns="http://www.w3.org/2000/svg" version="1.1" width="1024px" height="1024px" style="shape-rendering:geometricPrecision; text-rendering:geometricPrecision; image-rendering:optimizeQuality; fill-rule:evenodd; clip-rule:evenodd" xmlns:xlink="http://www.w3.org/1999/xlink">
<g><path style="opacity:1" fill="#848583" d="M 543.5,419.5 C 549.653,418.672 555.987,418.172 562.5,418C 552.131,417.233 541.797,417.567 531.5,419C 524.903,419.641 519.236,421.141 514.5,423.5C 502.463,427.512 490.796,432.678 479.5,439C 471.19,439.244 468.69,435.41 472,427.5C 495.384,407.037 522.718,397.704 554,399.5C 573.812,400.898 593.645,401.398 613.5,401C 641.044,396.958 658.377,381.458 665.5,354.5C 658.82,347.806 654.82,339.806 653.5,330.5C 656.587,330.543 659.587,330.71 662.5,331C 637.698,316.259 620.865,295.092 612,267.5C 598.462,245.969 579.962,230.135 556.5,220C 523.866,206.228 489.866,199.562 454.5,200C 434.23,171.059 408.896,147.725 378.5,130C 377.668,129.312 377.002,129.479 376.5,130.5C 367.283,153.087 362.616,176.587 362.5,201C 363.624,214.486 364.124,227.986 364,241.5C 344.527,266.667 327.861,293.667 314,322.5C 281.199,395.877 277.865,470.544 304,546.5C 315.548,575.955 331.881,602.289 353,625.5C 330.392,562.205 340.392,504.538 383,452.5C 410.389,420.969 443.889,398.302 483.5,384.5C 489.696,386.052 491.363,389.552 488.5,395C 468.471,407.346 449.137,420.679 430.5,435C 401.425,458.33 380.592,487.497 368,522.5C 350.58,604.492 379.746,663.325 455.5,699C 526.884,726.597 593.884,718.597 656.5,675C 702.762,638.983 727.262,591.483 730,532.5C 734.343,526.764 739.343,526.097 745,530.5C 746.943,532.99 748.109,535.823 748.5,539C 742.987,612.408 708.987,668.075 646.5,706C 589.424,736.275 529.757,742.608 467.5,725C 412.175,707.258 366.341,675.758 330,630.5C 281.921,569.227 261.255,499.561 268,421.5C 275.256,352.686 300.256,291.353 343,237.5C 337.222,193.17 343.889,150.837 363,110.5C 366.423,105.343 370.923,104.177 376.5,107C 413.099,124.107 442.766,149.274 465.5,182.5C 469.367,181.865 473.2,181.199 477,180.5C 485.488,158.712 496.488,138.379 510,119.5C 511.574,118.152 513.407,117.486 515.5,117.5C 519.199,118.183 522.532,119.683 525.5,122C 554.727,144.59 573.227,174.09 581,210.5C 610.359,225.536 630.026,248.87 640,280.5C 644.167,288.658 649.667,295.824 656.5,302C 667.118,309.228 677.284,317.061 687,325.5C 689.474,331.583 690.141,337.916 689,344.5C 684.876,372.952 671.042,395.119 647.5,411C 637.831,416.335 627.498,419.668 616.5,421C 592.162,420.954 567.828,420.454 543.5,419.5 Z"/></g>
<g><path style="opacity:1" fill="#858684" d="M 539.5,277.5 C 562.672,274.041 580.505,282.041 593,301.5C 593.667,302.833 593.667,304.167 593,305.5C 583.125,307.565 573.625,306.398 564.5,302C 556.357,296.025 548.357,289.858 540.5,283.5C 538.454,281.719 538.12,279.719 539.5,277.5 Z"/></g>
<g><path style="opacity:1" fill="#a0a09c" d="M 543.5,419.5 C 533.671,419.714 524.004,421.047 514.5,423.5C 519.236,421.141 524.903,419.641 531.5,419C 541.797,417.567 552.131,417.233 562.5,418C 555.987,418.172 549.653,418.672 543.5,419.5 Z"/></g>
<g><path style="opacity:1" fill="#3963b6" d="M 566.5,543.5 C 566.649,542.448 566.483,541.448 566,540.5C 565.667,540.833 565.333,541.167 565,541.5C 564.276,539.041 562.943,538.041 561,538.5C 560.716,536.114 559.716,535.448 558,536.5C 555.033,534.458 555.366,533.791 559,534.5C 563.062,533.622 566.562,531.789 569.5,529C 568.483,527.951 568.316,526.784 569,525.5C 569.667,526.833 570.333,528.167 571,529.5C 574.957,520.945 578.29,512.278 581,503.5C 579.256,504.036 577.423,504.37 575.5,504.5C 574.516,509.484 571.516,512.484 566.5,513.5C 565.304,513.154 565.304,512.654 566.5,512C 565.175,512.148 564.008,511.982 563,511.5C 562.086,513.664 560.919,515.664 559.5,517.5C 558.777,515.836 559.11,514.169 560.5,512.5C 560.154,511.304 559.654,511.304 559,512.5C 555.504,522.014 551.671,530.681 547.5,538.5C 556.71,514.409 566.21,490.409 576,466.5C 579.343,461.782 583.843,460.282 589.5,462C 594.562,464.733 596.395,468.9 595,474.5C 585.962,497.802 576.462,520.802 566.5,543.5 Z"/></g>
<g><path style="opacity:1" fill="#4877d4" d="M 656.5,509.5 C 667.132,519.631 677.632,529.965 688,540.5C 690.971,544.554 691.138,548.554 688.5,552.5C 688.837,548.692 688.337,545.026 687,541.5C 676.243,531.247 666.076,520.58 656.5,509.5 Z"/></g>
<g><path style="opacity:1" fill="#365faf" d="M 656.5,509.5 C 666.076,520.58 676.243,531.247 687,541.5C 688.337,545.026 688.837,548.692 688.5,552.5C 684.234,557.941 679.734,563.274 675,568.5C 657.138,586.028 639.638,603.862 622.5,622C 616.33,624.878 611.164,623.711 607,618.5C 606.163,614.705 606.496,611.039 608,607.5C 628.12,587.883 647.62,567.883 666.5,547.5C 651.588,531.085 636.088,515.085 620,499.5C 619.517,498.552 619.351,497.552 619.5,496.5C 618.5,496.5 617.5,496.5 616.5,496.5C 612.011,490.441 613.011,485.274 619.5,481C 622.5,480.333 625.5,480.333 628.5,481C 638.705,489.705 648.039,499.205 656.5,509.5 Z"/></g>
<g><path style="opacity:1" fill="#3760b0" d="M 470.5,608.5 C 454.837,591.17 438.503,574.503 421.5,558.5C 415.975,554.331 415.142,549.331 419,543.5C 441.531,520.636 463.698,497.47 485.5,474C 498.667,470.5 503.5,475.333 500,488.5C 480.683,509.318 461.183,529.984 441.5,550.5C 459.333,568.833 477.167,587.167 495,605.5C 498.375,617.79 493.875,622.623 481.5,620C 477.63,616.298 473.963,612.464 470.5,608.5 Z"/></g>
<g><path style="opacity:1" fill="#4976d3" d="M 616.5,496.5 C 617.5,496.5 618.5,496.5 619.5,496.5C 619.351,497.552 619.517,498.552 620,499.5C 636.088,515.085 651.588,531.085 666.5,547.5C 649.136,531.137 632.469,514.137 616.5,496.5 Z"/></g>
<g><path style="opacity:1" fill="#365fb0" d="M 566.5,543.5 C 561.353,558.445 555.686,573.112 549.5,587.5C 542.269,603.371 535.269,620.037 528.5,637.5C 528.624,638.107 528.957,638.44 529.5,638.5C 527.809,648.339 522.142,652.172 512.5,650C 507.919,646.562 506.419,642.062 508,636.5C 509.899,631.604 512.065,626.937 514.5,622.5C 521.057,607.705 527.39,592.705 533.5,577.5C 533.376,576.893 533.043,576.56 532.5,576.5C 537.129,563.599 542.129,550.933 547.5,538.5C 551.671,530.681 555.504,522.014 559,512.5C 559.654,511.304 560.154,511.304 560.5,512.5C 559.11,514.169 558.777,515.836 559.5,517.5C 560.919,515.664 562.086,513.664 563,511.5C 564.008,511.982 565.175,512.148 566.5,512C 565.304,512.654 565.304,513.154 566.5,513.5C 571.516,512.484 574.516,509.484 575.5,504.5C 577.423,504.37 579.256,504.036 581,503.5C 578.29,512.278 574.957,520.945 571,529.5C 570.333,528.167 569.667,526.833 569,525.5C 568.316,526.784 568.483,527.951 569.5,529C 566.562,531.789 563.062,533.622 559,534.5C 555.366,533.791 555.033,534.458 558,536.5C 559.716,535.448 560.716,536.114 561,538.5C 562.943,538.041 564.276,539.041 565,541.5C 565.333,541.167 565.667,540.833 566,540.5C 566.483,541.448 566.649,542.448 566.5,543.5 Z"/></g>
<g><path style="opacity:1" fill="#4979d7" d="M 421.5,558.5 C 438.503,574.503 454.837,591.17 470.5,608.5C 453.469,592.47 437.136,575.803 421.5,558.5 Z"/></g>
<g><path style="opacity:1" fill="#4b79db" d="M 549.5,587.5 C 543.108,604.616 536.441,621.616 529.5,638.5C 528.957,638.44 528.624,638.107 528.5,637.5C 535.269,620.037 542.269,603.371 549.5,587.5 Z"/></g>
<g><path style="opacity:1" fill="#4774d1" d="M 532.5,576.5 C 533.043,576.56 533.376,576.893 533.5,577.5C 527.39,592.705 521.057,607.705 514.5,622.5C 519.942,606.95 525.942,591.616 532.5,576.5 Z"/></g>
</svg>
